# xmcd
#
# Track frame offsets:
#	150
#	61468
#	94872
#	160696
#	199609
#	244950
#
# Disc length: 3552 seconds
#
# Revision: 1
# Processed by: cddbd v1.5.2PL0 Copyright (c) Steve Scherf et al.
# Submitted via: audiograbber 1.83.01
#
DISCID=4a0dde06
DTITLE=Grateful Dead - 73-09-21 The Spectrum, Philadelphia PA
DYEAR=1900
DGENRE=
TTITLE0=He's Gone
TTITLE1=Truckin'
TTITLE2=The Other One
TTITLE3=Wharf Rat
TTITLE4=Row Jimmy
TTITLE5=One More Saturday Night
EXTD=
EXTT0=
EXTT1=
EXTT2=
EXTT3=
EXTT4=
EXTT5=
PLAYORDER=
